<svg width="24" height="24" viewBox="0 0 24 24" fill="none" xmlns="http://www.w3.org/2000/svg">
<g id="axyl-logo 1" clip-path="url(#clip0_30_5)">
<g id="layer1">
<path id="path24524-1" d="M12.0616 0C11.1404 2.3075 10.1451 4.60497 9.08542 6.89336C9.9318 7.84029 10.8368 8.74037 11.9659 9.46157C10.7557 8.98538 9.76621 8.28938 8.74355 7.62631C6.15935 13.1311 3.20662 18.5835 0.012207 23.9954L6.10932 20.9362V14.1307L9.65698 16.2351H10.3921L10.021 16.6063C9.91076 16.7165 9.91076 16.894 10.021 17.0043L10.6077 17.5911C10.7179 17.7013 10.8954 17.7013 11.0056 17.5911L11.3545 17.2422V17.7294C11.3545 17.8853 11.48 18.0109 11.6358 18.0109H12.4656C12.6215 18.0109 12.747 17.8853 12.747 17.7294V17.2564L13.0817 17.5912C13.192 17.7015 13.3694 17.7015 13.4797 17.5912L14.0664 17.0044C14.1766 16.8942 14.1766 16.7167 14.0664 16.6064L13.6951 16.2351H14.4537L18.0016 14.1306V20.9715L23.9878 24C23.2503 22.6663 22.5189 21.3275 21.7958 19.9844C20.7481 19.1456 19.3625 18.3556 18.0648 17.5223C19.0539 17.8838 20.221 18.1656 21.0286 18.5518C17.7723 12.4369 14.7075 6.235 12.0616 0ZM9.05729 10.5079C9.57107 10.508 10.0638 10.7121 10.4271 11.0755C10.7904 11.4388 10.9945 11.9317 10.9945 12.4456C10.9945 12.9594 10.7904 13.4523 10.4271 13.8156C10.0638 14.179 9.57107 14.3832 9.05729 14.3832C8.80287 14.3832 8.55095 14.3331 8.3159 14.2357C8.08085 14.1383 7.86728 13.9956 7.68737 13.8157C7.50747 13.6358 7.36476 13.4222 7.2674 13.1871C7.17003 12.952 7.11992 12.7 7.11991 12.4456C7.11992 12.1911 7.17003 11.9391 7.2674 11.704C7.36476 11.469 7.50747 11.2554 7.68737 11.0754C7.86728 10.8955 8.08085 10.7528 8.3159 10.6554C8.55095 10.558 8.80287 10.5079 9.05729 10.5079ZM14.9687 10.5079C15.4825 10.508 15.9753 10.7121 16.3386 11.0755C16.7019 11.4388 16.906 11.9317 16.906 12.4456C16.906 12.9594 16.7019 13.4523 16.3386 13.8156C15.9753 14.179 15.4825 14.3832 14.9687 14.3832C14.4549 14.3832 13.9622 14.179 13.5989 13.8156C13.2356 13.4523 13.0315 12.9594 13.0315 12.4456C13.0315 11.9317 13.2356 11.4388 13.5989 11.0755C13.9622 10.7121 14.4549 10.508 14.9687 10.5079ZM9.05729 11.4974C8.93279 11.4974 8.80951 11.5219 8.69449 11.5696C8.57947 11.6172 8.47496 11.6871 8.38692 11.7751C8.29888 11.8631 8.22905 11.9677 8.1814 12.0827C8.13375 12.1977 8.10923 12.321 8.10922 12.4456C8.10923 12.5701 8.13375 12.6934 8.1814 12.8084C8.22905 12.9234 8.29888 13.028 8.38692 13.116C8.47496 13.2041 8.57947 13.2739 8.69449 13.3215C8.80951 13.3692 8.93279 13.3937 9.05729 13.3937C9.30869 13.3937 9.5498 13.2938 9.72757 13.116C9.90534 12.9382 10.0052 12.697 10.0052 12.4456C10.0052 12.1941 9.90534 11.9529 9.72757 11.7751C9.5498 11.5973 9.30869 11.4974 9.05729 11.4974ZM14.9687 11.4974C14.7173 11.4974 14.4762 11.5973 14.2984 11.7751C14.1207 11.9529 14.0208 12.1941 14.0208 12.4456C14.0208 12.697 14.1207 12.9382 14.2984 13.116C14.4762 13.2938 14.7173 13.3937 14.9687 13.3937C15.2201 13.3937 15.4612 13.2938 15.639 13.116C15.8168 12.9382 15.9167 12.697 15.9167 12.4456C15.9167 12.1941 15.8168 11.9529 15.639 11.7751C15.4612 11.5973 15.2201 11.4974 14.9687 11.4974ZM12.0395 14.6449C12.2924 14.6449 12.5349 14.7454 12.7137 14.9242C12.8925 15.103 12.993 15.3456 12.993 15.5985C12.993 15.8514 12.8925 16.094 12.7137 16.2729C12.5349 16.4517 12.2924 16.5522 12.0395 16.5522C11.9143 16.5522 11.7903 16.5275 11.6746 16.4796C11.5589 16.4317 11.4538 16.3614 11.3652 16.2729C11.2767 16.1843 11.2065 16.0792 11.1585 15.9635C11.1106 15.8478 11.0859 15.7238 11.0859 15.5985C11.0859 15.4733 11.1106 15.3493 11.1585 15.2336C11.2065 15.1179 11.2767 15.0127 11.3652 14.9242C11.4538 14.8356 11.5589 14.7654 11.6746 14.7174C11.7903 14.6695 11.9143 14.6449 12.0395 14.6449ZM12.0603 14.9705C12.0407 14.9699 12.0211 14.9703 12.0015 14.9715C11.833 14.9816 11.6754 15.0582 11.5634 15.1845C11.4514 15.3108 11.3941 15.4764 11.4041 15.6449C11.4091 15.7284 11.4305 15.8101 11.467 15.8853C11.5035 15.9605 11.5545 16.0277 11.617 16.0832C11.6795 16.1387 11.7524 16.1814 11.8314 16.2087C11.9104 16.236 11.994 16.2475 12.0774 16.2426C12.1609 16.2376 12.2425 16.2162 12.3177 16.1797C12.3929 16.1431 12.4601 16.0921 12.5156 16.0296C12.5711 15.967 12.6137 15.8942 12.641 15.8151C12.6683 15.7361 12.6798 15.6525 12.6748 15.569C12.6654 15.4107 12.5971 15.2615 12.4835 15.1508C12.3698 15.0401 12.2189 14.9759 12.0603 14.9707V14.9705ZM7.10621 15.9065V20.4361L8.83038 19.5709L9.40218 19.2316V17.2732L7.10621 15.9065ZM17.0047 15.9065L14.7226 17.265V19.2399L15.5557 19.7341L17.0047 20.4672V15.9065Z" fill="white"/>
</g>
</g>
<defs>
<clipPath id="clip0_30_5">
<rect width="24" height="24" fill="white"/>
</clipPath>
</defs>
</svg>
