<svg width="160" height="145" viewBox="0 0 160 145" fill="none" xmlns="http://www.w3.org/2000/svg">
<g id="ic:baseline-discord">
<path id="Vector" d="M121.372 43.5283C110.51 38.465 98.75 34.79 86.5 32.6666C86.3926 32.6632 86.2858 32.6834 86.187 32.7257C86.0882 32.768 85.9999 32.8315 85.9284 32.9116C84.4584 35.6066 82.7434 39.1183 81.6 41.8133C68.6069 39.8533 55.3932 39.8533 42.4 41.8133C41.2567 39.0366 39.5417 35.6066 37.99 32.9116C37.9084 32.7483 37.6634 32.6666 37.4184 32.6666C25.1684 34.79 13.49 38.465 2.54669 43.5283C2.46502 43.5283 2.38336 43.61 2.30169 43.6916C-19.9116 76.93 -26.0366 109.27 -23.015 141.283C-23.015 141.447 -22.9333 141.61 -22.77 141.692C-8.06998 152.472 6.05836 159.005 20.0234 163.333C20.2684 163.415 20.5134 163.333 20.595 163.17C23.8617 158.678 26.8017 153.942 29.3334 148.96C29.4967 148.633 29.3334 148.307 29.0067 148.225C24.3517 146.428 19.9417 144.305 15.6134 141.855C15.2867 141.692 15.2867 141.202 15.5317 140.957C16.43 140.303 17.3284 139.568 18.2267 138.915C18.39 138.752 18.635 138.752 18.7984 138.833C46.8917 151.655 77.19 151.655 104.957 138.833C105.12 138.752 105.365 138.752 105.528 138.915C106.427 139.65 107.325 140.303 108.223 141.038C108.55 141.283 108.55 141.773 108.142 141.937C103.895 144.468 99.4034 146.51 94.7484 148.307C94.4217 148.388 94.34 148.797 94.4217 149.042C97.035 154.023 99.975 158.76 103.16 163.252C103.405 163.333 103.65 163.415 103.895 163.333C117.942 159.005 132.07 152.472 146.77 141.692C146.933 141.61 147.015 141.447 147.015 141.283C150.608 104.288 141.053 72.1933 121.698 43.6916C121.617 43.61 121.535 43.5283 121.372 43.5283ZM33.58 121.765C25.1684 121.765 18.145 114.007 18.145 104.452C18.145 94.8966 25.005 87.1383 33.58 87.1383C42.2367 87.1383 49.0967 94.9783 49.015 104.452C49.015 114.007 42.155 121.765 33.58 121.765ZM90.5017 121.765C82.09 121.765 75.0667 114.007 75.0667 104.452C75.0667 94.8966 81.9267 87.1383 90.5017 87.1383C99.1584 87.1383 106.018 94.9783 105.937 104.452C105.937 114.007 99.1584 121.765 90.5017 121.765Z" fill="#333333"/>
</g>
</svg>
