<svg width="189" height="191" viewBox="0 0 189 191" fill="none" xmlns="http://www.w3.org/2000/svg">
<g id="mdi:github" clip-path="url(#clip0_95_155)">
<path id="Vector" d="M14.1667 63.2746C4.87886 68.6369 -3.2618 75.7761 -9.79053 84.2845C-16.3193 92.7929 -21.1082 102.504 -23.8839 112.863C-29.4898 133.784 -26.5551 156.076 -15.7254 174.833C2.32292 206.094 37.9336 220.897 71.4424 214.092C75.3054 212.617 75.1711 209.771 74.0686 207.861L67.1678 195.909C50.0269 211.463 37.9324 200.151 37.9324 200.151C29.9424 193.826 24.0794 194.287 24.0794 194.287C15.1117 193.618 22.1245 189.758 22.1245 189.758C29.4828 186.17 37.1513 190.795 37.1513 190.795C49.5111 197.993 58.0702 188.808 61.1215 184.783C59.1039 179.818 59.1461 175.645 60.1056 172.733C43.3837 180.03 23.393 183.462 7.83552 156.515C3.30301 148.665 2.35641 140.819 4.0544 133.143C2.32632 131.783 -4.39575 125.857 -6.01835 114.063C-6.01835 114.063 -1.17991 108.724 17.5961 110.048C22.2851 105.266 27.9183 100.977 33.93 97.5057C39.9417 94.0348 46.4732 91.3012 52.9588 89.6313C61.1999 72.7085 68.2433 71.1881 68.2433 71.1881C77.6457 78.4902 79.417 87.2748 79.7306 89.4513C87.2269 91.8186 93.5486 96.5615 98.0811 104.412C113.679 131.429 100.56 146.925 85.8088 157.799C89.6207 158.522 94.4455 161.488 98.243 168.066L109.431 187.445C110.534 189.354 112.972 190.964 116.212 188.245C138.818 162.557 143.774 124.427 125.725 93.1667C120.363 83.8789 113.224 75.7382 104.716 69.2095C96.2071 62.6807 86.4961 57.8918 76.1369 55.116C65.7777 52.3403 54.9732 51.6321 44.3404 53.032C33.7075 54.4318 23.4544 57.9123 14.1667 63.2746Z" fill="#333333"/>
</g>
<defs>
<clipPath id="clip0_95_155">
<rect width="196" height="196" fill="white" transform="translate(-78.8705 98.1294) rotate(-30)"/>
</clipPath>
</defs>
</svg>
