<svg width="636" height="330" viewBox="0 0 636 330" fill="none" xmlns="http://www.w3.org/2000/svg">
<path d="M38 209.603V208.103H36.5H-24.5C-28.1472 208.103 -31.6448 206.655 -34.2233 204.08L-35.2834 205.141L-34.2233 204.08C-36.8017 201.504 -38.25 198.011 -38.25 194.369L-38.25 133.435C-38.25 129.793 -36.8017 126.3 -34.2233 123.724C-31.6448 121.148 -28.1472 119.701 -24.5 119.701H77.4615C95.2887 119.701 112.941 123.208 129.412 130.023C145.882 136.838 160.847 146.826 173.452 159.418L183.472 169.427L183.472 169.427C186.05 172.002 187.499 175.494 187.5 179.135C187.5 179.136 187.5 179.136 187.5 179.136V194.369C187.5 198.011 186.052 201.504 183.473 204.08C180.895 206.655 177.397 208.103 173.75 208.103H112.75H111.25V209.603L111.25 515.916C111.25 519.558 109.802 523.051 107.223 525.627C104.645 528.203 101.147 529.65 97.5 529.65H51.75C48.1028 529.65 44.6052 528.203 42.0267 525.627C39.4483 523.051 38 519.558 38 515.916L38 209.603Z" stroke="#3D3D3D" stroke-width="3"/>
<path d="M281 137.603V136.103H279.5H218.5C214.853 136.103 211.355 134.655 208.777 132.08L207.717 133.141L208.777 132.08C206.198 129.504 204.75 126.011 204.75 122.369V61.4346C204.75 57.7927 206.198 54.2997 208.777 51.724C211.355 49.1483 214.853 47.701 218.5 47.701L320.461 47.701C338.289 47.7008 355.941 51.2082 372.412 58.0229C388.882 64.8376 403.847 74.8261 416.452 87.4181L426.472 97.4266L426.472 97.4267C429.05 100.002 430.499 103.494 430.5 107.136C430.5 107.136 430.5 107.136 430.5 107.136V122.369C430.5 126.011 429.052 129.504 426.473 132.08C423.895 134.655 420.397 136.103 416.75 136.103H355.75H354.25V137.603V443.916C354.25 447.558 352.802 451.051 350.223 453.627C347.645 456.203 344.147 457.65 340.5 457.65H294.75C291.103 457.65 287.605 456.203 285.027 453.627C282.448 451.051 281 447.558 281 443.916V137.603Z" stroke="#3D3D3D" stroke-width="3"/>
<path d="M520 272.603V271.103H518.5H457.5C453.853 271.103 450.355 269.655 447.777 267.08L446.717 268.141L447.777 267.08C445.198 264.504 443.75 261.011 443.75 257.369V196.435C443.75 192.793 445.198 189.3 447.777 186.724C450.355 184.148 453.853 182.701 457.5 182.701H559.461C577.289 182.701 594.941 186.208 611.412 193.023C627.882 199.838 642.847 209.826 655.452 222.418L665.472 232.427L665.472 232.427C668.05 235.002 669.499 238.494 669.5 242.135C669.5 242.136 669.5 242.136 669.5 242.136V257.369C669.5 261.011 668.052 264.504 665.473 267.08C662.895 269.655 659.397 271.103 655.75 271.103H594.75H593.25V272.603V578.916C593.25 582.558 591.802 586.051 589.223 588.627C586.645 591.203 583.147 592.65 579.5 592.65H533.75C530.103 592.65 526.605 591.203 524.027 588.627C521.448 586.051 520 582.558 520 578.916V272.603Z" stroke="#3D3D3D" stroke-width="3"/>
</svg>
